<svg width="60" height="60" viewBox="0 0 60 60" fill="none" xmlns="http://www.w3.org/2000/svg">
<path d="M15.2063 33.9851C15.2063 33.0295 14.9379 32.0974 14.4301 31.2897C14.2866 31.0614 14.0359 30.9229 13.7663 30.9229C13.4967 30.9229 13.2461 31.0614 13.1025 31.2897C12.456 32.3178 11.3467 32.9317 10.1354 32.9317C8.92402 32.9317 7.81472 32.3178 7.16828 31.2897C7.0248 31.0614 6.77403 30.9229 6.50445 30.9229C6.23487 30.9229 5.98424 31.0614 5.84063 31.2897C5.33283 32.0974 5.06442 33.0293 5.06442 33.9851C5.06442 36.7811 7.3392 39.056 10.1354 39.056C12.9315 39.056 15.2063 36.7811 15.2063 33.9851ZM10.1355 37.4878C8.204 37.4878 6.63264 35.9164 6.63264 33.9849C6.63264 33.7135 6.66401 33.4447 6.72529 33.1836C7.64563 34.0232 8.85071 34.4997 10.1355 34.4997C11.4203 34.4997 12.6254 34.0232 13.5457 33.1836C13.607 33.4447 13.6384 33.7135 13.6384 33.9849C13.6382 35.9164 12.0669 37.4878 10.1355 37.4878Z" fill="white"/>
<path d="M29.8746 30.9229C29.6051 30.9229 29.3544 31.0614 29.2108 31.2897C28.5644 32.3178 27.4551 32.9317 26.2437 32.9317C25.0324 32.9317 23.9231 32.3178 23.2766 31.2897C23.1331 31.0614 22.8824 30.9229 22.6128 30.9229C22.3432 30.9229 22.0926 31.0614 21.949 31.2897C21.4412 32.0974 21.1728 33.0293 21.1728 33.9851C21.1728 36.7811 23.4475 39.056 26.2437 39.056C29.0399 39.056 31.3147 36.7812 31.3147 33.9851C31.3147 33.0295 31.0463 32.0975 30.5383 31.2897C30.3948 31.0614 30.1442 30.9229 29.8746 30.9229ZM26.2437 37.4878C24.3122 37.4878 22.7409 35.9164 22.7409 33.9849C22.7409 33.7135 22.7722 33.4447 22.8335 33.1836C23.7538 34.0232 24.9589 34.4997 26.2437 34.4997C27.5285 34.4997 28.7336 34.0232 29.6539 33.1836C29.7153 33.4447 29.7466 33.7134 29.7466 33.9849C29.7466 35.9164 28.1752 37.4878 26.2437 37.4878Z" fill="white"/>
<path d="M18.1896 42.0371C14.2643 42.0371 11.0708 45.2305 11.0708 49.1559C11.0708 50.4975 11.4477 51.8057 12.1605 52.9395C12.304 53.1677 12.5546 53.3062 12.8242 53.3062C13.0938 53.3062 13.3444 53.1677 13.4879 52.9394C14.5123 51.3103 16.27 50.3378 18.1894 50.3378C20.1089 50.3378 21.8666 51.3103 22.891 52.9394C23.0345 53.1677 23.2851 53.3062 23.5547 53.3062C23.8243 53.3062 24.0749 53.1677 24.2184 52.9395C24.9313 51.8058 25.3081 50.4975 25.3081 49.1559C25.3083 45.2305 22.1148 42.0371 18.1896 42.0371ZM23.4086 51.0462C22.0745 49.6021 20.2016 48.7696 18.1896 48.7696C16.1776 48.7696 14.3046 49.6021 12.9706 51.0462C12.7521 50.4438 12.6389 49.8048 12.6389 49.1557C12.6389 46.0951 15.1289 43.6051 18.1896 43.6051C21.2502 43.6051 23.7402 46.0951 23.7402 49.1557C23.7402 49.8048 23.6272 50.4438 23.4086 51.0462Z" fill="white"/>
<path d="M57.021 1.10181C56.7863 0.738538 56.3014 0.633737 55.9376 0.868298C51.7789 3.54986 46.9545 4.98519 41.9862 5.0193C36.8739 5.04909 31.9237 3.58567 27.6605 0.774996C27.4863 0.660395 27.2734 0.619625 27.0696 0.661963C26.8653 0.704302 26.6866 0.826351 26.5725 1.00093C24.6418 3.95665 23.6213 7.39169 23.6213 10.9349C23.6213 14.9251 24.4328 18.9463 26.0348 22.9004C23.5697 23.6761 20.9879 24.0844 18.3657 24.1021C18.3075 24.1024 18.2492 24.1027 18.1909 24.1027C13.1433 24.1027 8.25339 22.6368 4.03888 19.8585C3.86469 19.7438 3.65221 19.703 3.44797 19.7455C3.24373 19.7878 3.06496 19.9099 2.95089 20.0846C1.02044 23.0402 0 26.4752 0 30.0179C0 35.4617 1.50092 40.9239 4.46109 46.2525C6.58507 50.0762 9.39731 53.7418 12.8197 57.1479C14.298 58.6193 16.2401 59.3546 18.1845 59.3544C20.1374 59.3543 22.093 58.6122 23.5817 57.1293C26.9121 53.8116 29.6668 50.2437 31.7694 46.5243C33.5176 43.4319 34.7737 40.2917 35.5298 37.1352C35.8283 37.4468 36.1321 37.7574 36.4407 38.0646C37.9188 39.5365 39.8609 40.2719 41.8052 40.2719C43.7581 40.2719 45.7132 39.5297 47.2021 38.0464C50.5328 34.7286 53.2877 31.1607 55.3903 27.4414C58.308 22.2807 59.8568 16.9864 59.9936 11.7059C60.0912 7.92967 59.0633 4.26282 57.021 1.10181ZM30.4044 45.7526C28.372 49.3477 25.7043 52.8014 22.4751 56.0183C20.114 58.3702 16.2789 58.3787 13.9258 56.0365C10.6076 52.7342 7.88449 49.1862 5.83186 45.4912C3.00263 40.3982 1.56809 35.1922 1.56809 30.0179C1.56809 27.0408 2.35645 24.147 3.85476 21.6009C8.1691 24.2677 13.1039 25.6707 18.1908 25.6705C18.2523 25.6705 18.3146 25.6703 18.3762 25.6699C23.3745 25.6362 28.2361 24.2638 32.4872 21.6936C34.0887 24.4342 34.8883 27.5482 34.8052 30.748C34.6749 35.7693 33.1943 40.8175 30.4044 45.7526ZM36.3716 29.8707C36.3392 28.4297 36.1421 27.0101 35.7871 25.6332C35.854 25.3282 35.9423 25.0297 36.0542 24.7401C37.5095 26.3662 39.582 27.3068 41.8109 27.3068C44.0402 27.3068 46.1122 26.3666 47.5665 24.7405C47.8388 25.4449 47.9801 26.196 47.9801 26.9592C47.9801 30.3608 45.2126 33.1284 41.8109 33.1284C39.5176 33.1284 37.4486 31.8842 36.3716 29.8707ZM58.426 11.6651C58.2959 16.6864 56.8153 21.7346 54.0253 26.6695C51.9929 30.2644 49.325 33.7182 46.0955 36.9354C43.7343 39.2878 39.8996 39.2959 37.5472 36.9533C36.986 36.3947 36.4411 35.8261 35.9203 35.2592C36.0892 34.3007 36.2115 33.3411 36.2878 32.3816C37.7174 33.8437 39.6866 34.6965 41.8109 34.6965C46.0772 34.6965 49.5481 31.2255 49.5481 26.9592C49.5481 25.5026 49.1382 24.0809 48.3628 22.8477C48.2193 22.6196 47.9686 22.481 47.699 22.481C47.4294 22.481 47.1788 22.6197 47.0353 22.8478C45.8974 24.6581 43.9444 25.7387 41.8109 25.7387C39.6778 25.7387 37.7242 24.6579 36.585 22.8476C36.4415 22.6194 36.1909 22.481 35.9214 22.481H35.9213C35.6517 22.4812 35.4011 22.6198 35.2576 22.848C35.1698 22.9877 35.0883 23.1302 35.01 23.2744C34.5739 22.2035 34.0363 21.1697 33.3999 20.185C33.1651 19.8216 32.6802 19.7171 32.3164 19.9517C30.7974 20.9312 29.1892 21.7436 27.5179 22.383C25.9728 18.5936 25.1893 14.7458 25.1893 10.9347C25.1893 7.95711 25.9778 5.06333 27.4761 2.51767C31.8427 5.21688 36.843 6.62006 41.9967 6.58739C46.995 6.55302 51.8566 5.18029 56.1081 2.61032C57.7093 5.35095 58.5087 8.46491 58.426 11.6651Z" fill="white"/>
<path d="M49.8648 11.8398C47.0687 11.8398 44.7938 14.1146 44.7938 16.9108C44.7938 17.8664 45.0622 18.7985 45.57 19.6062C45.7135 19.8345 45.9643 19.973 46.2339 19.973C46.5034 19.973 46.7541 19.8345 46.8977 19.6062C47.5441 18.5781 48.6534 17.9642 49.8648 17.9642C51.0761 17.9642 52.1854 18.5781 52.8319 19.6062C52.9753 19.8345 53.2261 19.973 53.4957 19.973C53.7653 19.973 54.0159 19.8345 54.1595 19.6062C54.6674 18.7984 54.9358 17.8664 54.9358 16.9108C54.9357 14.1146 52.6609 11.8398 49.8648 11.8398ZM53.275 17.712C52.3546 16.8724 51.1494 16.3959 49.8648 16.3959C48.5801 16.3959 47.3749 16.8724 46.4546 17.712C46.3933 17.4509 46.3619 17.1821 46.3619 16.9107C46.3619 14.9793 47.9333 13.4078 49.8648 13.4078C51.7963 13.4078 53.3676 14.9792 53.3676 16.9107C53.3676 17.1823 53.3364 17.4509 53.275 17.712Z" fill="white"/>
<path d="M33.7565 11.8398C30.9605 11.8398 28.6856 14.1146 28.6856 16.9108C28.6856 17.8664 28.954 18.7985 29.4618 19.6062C29.6053 19.8345 29.8561 19.973 30.1256 19.973C30.3952 19.973 30.6458 19.8345 30.7895 19.6062C31.4359 18.5781 32.5452 17.9642 33.7565 17.9642C34.9679 17.9642 36.0772 18.5781 36.7236 19.6062C36.8671 19.8345 37.1179 19.973 37.3875 19.973C37.657 19.973 37.9077 19.8345 38.0513 19.6062C38.5591 18.7985 38.8275 17.8665 38.8275 16.9108C38.8274 14.1146 36.5526 11.8398 33.7565 11.8398ZM37.1666 17.712C36.2463 16.8724 35.0412 16.3959 33.7564 16.3959C32.4716 16.3959 31.2666 16.8724 30.3462 17.712C30.2849 17.4509 30.2536 17.1821 30.2536 16.9107C30.2536 14.9793 31.8249 13.4078 33.7564 13.4078C35.6879 13.4078 37.2593 14.9792 37.2593 16.9107C37.2593 17.1822 37.228 17.4509 37.1666 17.712Z" fill="white"/>
</svg>
