<svg width="147" height="52" viewBox="0 0 147 52" fill="none" xmlns="http://www.w3.org/2000/svg">
<path d="M10.4812 34.5592C8.88239 34.5592 7.4316 34.1595 6.12885 33.3599C4.8261 32.5899 3.7158 31.5238 2.79795 30.1616C1.90971 28.7994 1.21393 27.2002 0.710591 25.3642C0.236864 23.5281 0 21.544 0 19.4118C0 16.3616 0.355296 13.6371 1.06589 11.2384C1.77648 8.8397 2.70913 6.81116 3.86384 5.15279C5.04816 3.49442 6.38052 2.22103 7.86092 1.33262C9.37092 0.444206 10.9105 0 12.4798 0C13.9602 0 15.2037 0.266524 16.2104 0.799571C17.217 1.33262 18.0164 2.01373 18.6086 2.84292C19.2304 3.6721 19.6449 4.59013 19.8521 5.597C20.089 6.57425 20.163 7.50708 20.0742 8.3955C19.9262 10.1131 19.334 11.5049 18.2977 12.571C17.2911 13.6371 16.1215 14.1702 14.7892 14.1702C14.3451 14.1406 13.8861 14.0665 13.4124 13.9481C12.9979 13.8296 12.5686 13.6519 12.1245 13.415C11.6803 13.1781 11.2658 12.8376 10.8809 12.3934C12.1245 12.4822 13.0867 12.2305 13.7677 11.6382C14.4487 11.0459 14.952 10.3796 15.2777 9.63927C15.633 8.78048 15.8403 7.77361 15.8995 6.61867C15.8995 5.96717 15.7958 5.40451 15.5886 4.93069C15.3813 4.42726 15.1001 4.02747 14.7448 3.73133C14.4191 3.40558 14.0638 3.16867 13.6789 3.0206C13.294 2.87253 12.9239 2.7985 12.5686 2.7985C11.7692 2.7985 10.8957 3.10944 9.94828 3.73133C9.03043 4.35322 8.15699 5.30086 7.32797 6.57425C6.49895 7.81803 5.80316 9.41717 5.24061 11.3717C4.70767 13.2966 4.4412 15.5916 4.4412 18.2569C4.4412 20.8925 4.67806 23.0543 5.15179 24.7423C5.62551 26.4007 6.20287 27.7037 6.88385 28.6513C7.56484 29.5693 8.27543 30.206 9.01563 30.5614C9.78543 30.8871 10.4368 31.05 10.9698 31.05C12.006 30.9612 12.9535 30.6058 13.8121 29.9839C14.5523 29.4509 15.2481 28.6069 15.8995 27.4519C16.5805 26.2674 17.0394 24.5794 17.2762 22.388C17.6612 22.4176 17.972 22.5064 18.2089 22.6545C18.4754 22.8026 18.6974 22.9507 18.8751 23.0987C19.0527 23.2764 19.2156 23.4837 19.3636 23.7206C19.3932 23.7502 19.3932 24.0464 19.3636 24.609C19.334 25.1717 19.2304 25.8528 19.0527 26.6524C18.8751 27.4519 18.5938 28.3107 18.2089 29.2288C17.8536 30.1468 17.3355 31.0056 16.6545 31.8052C16.0031 32.6047 15.1741 33.2562 14.1674 33.7597C13.1607 34.2927 11.932 34.5592 10.4812 34.5592Z" fill="#79D222"/>
<path d="M34.9184 17.0131C34.9184 17.4277 34.8 17.8571 34.5632 18.3013C34.3559 18.7159 34.0894 19.1157 33.7637 19.5007C33.4381 19.8856 33.068 20.2262 32.6534 20.5223C32.2685 20.7889 31.8984 20.9517 31.5431 21.011C31.78 20.0929 31.854 19.3822 31.7652 18.8788C31.6764 18.3753 31.5283 18.0052 31.3211 17.7682C31.0842 17.5017 30.7881 17.3537 30.4328 17.324C29.8999 17.324 29.3818 17.635 28.8784 18.2569C28.4047 18.8491 27.9902 19.5895 27.6349 20.4779C27.2796 21.3367 26.9983 22.2695 26.7911 23.2764C26.5838 24.2537 26.4802 25.1421 26.4802 25.9416C26.4506 26.5043 26.4654 27.0522 26.5246 27.5852C26.5542 28.0294 26.5986 28.4884 26.6578 28.9622C26.7467 29.4361 26.8651 29.8062 27.0131 30.0728C26.8355 30.2208 26.5394 30.3985 26.1249 30.6058C25.74 30.8131 25.3255 30.9464 24.8814 31.0056C24.4668 31.0648 24.0819 30.9908 23.7266 30.7835C23.401 30.5762 23.2233 30.132 23.1937 29.4509C23.1345 28.7994 23.0901 28.0738 23.0605 27.2743C23.0605 26.4451 23.0605 25.6307 23.0605 24.8311C23.0901 24.0019 23.1197 23.1876 23.1493 22.388C23.1789 21.5884 23.2233 20.8481 23.2825 20.167C23.3417 18.864 23.3713 17.8571 23.3713 17.1464C23.3713 16.4356 23.3565 15.7545 23.3269 15.103C23.3269 14.9846 23.5194 14.8217 23.9043 14.6144C24.3188 14.3775 24.7629 14.1702 25.2366 13.9925C25.74 13.8148 26.1989 13.7112 26.6134 13.6816C27.0279 13.6519 27.2352 13.7408 27.2352 13.9481C27.2352 14.2738 27.1908 14.9253 27.1019 15.9026C27.0427 16.8502 26.9539 17.8423 26.8355 18.8788C27.0427 18.3161 27.3092 17.709 27.6349 17.0575C27.9902 16.406 28.3899 15.7989 28.834 15.2363C29.2781 14.6736 29.7815 14.2146 30.344 13.8592C30.9066 13.4743 31.5283 13.2818 32.2093 13.2818C32.7423 13.2818 33.1716 13.4446 33.4973 13.7704C33.8526 14.0961 34.1338 14.4663 34.3411 14.8809C34.5484 15.2955 34.6964 15.7101 34.7852 16.1247C34.874 16.5393 34.9184 16.8354 34.9184 17.0131Z" fill="#79D222"/>
<path d="M49.6295 28.3848C49.6887 28.5921 49.7775 28.7846 49.8959 28.9622C49.9848 29.1103 50.1032 29.2584 50.2512 29.4065C50.4289 29.5249 50.6361 29.5989 50.873 29.6286C50.6657 30.0431 50.4585 30.3245 50.2512 30.4725C50.1328 30.5614 50.0292 30.6206 49.9403 30.6502C49.6739 30.7391 49.2742 30.7835 48.7412 30.7835C48.2083 30.7835 47.6901 30.6206 47.1868 30.2949C47.0092 30.1468 46.8463 29.9247 46.6983 29.6286C46.5502 29.3916 46.417 29.0659 46.2986 28.6513C46.2097 28.2071 46.1357 27.6444 46.0765 26.9633C45.662 27.8517 45.1883 28.5625 44.6553 29.0955C44.152 29.5989 43.6487 29.9691 43.1453 30.206C42.5828 30.5318 42.0054 30.7243 41.4133 30.7835C40.6731 30.8427 39.9625 30.7243 39.2815 30.4281C38.6301 30.1024 38.0676 29.6286 37.5938 29.0067C37.1497 28.3552 36.8092 27.5704 36.5724 26.6524C36.3355 25.7343 36.2615 24.6979 36.3503 23.5429C36.4391 22.3288 36.676 21.2479 37.0609 20.3002C37.4458 19.3526 37.9047 18.5086 38.4377 17.7682C38.9706 17.0279 39.5331 16.406 40.1253 15.9026C40.7175 15.3695 41.28 14.9401 41.813 14.6144C42.3755 14.259 42.8492 14.0073 43.2341 13.8592C43.6487 13.6816 43.9151 13.5779 44.0336 13.5483C44.3592 13.4594 44.6405 13.4298 44.8774 13.4594C45.1143 13.4891 45.3215 13.6223 45.4992 13.8592C45.5584 13.9481 45.6324 14.0517 45.7212 14.1702C45.7804 14.2886 45.8545 14.4515 45.9433 14.6588C46.0321 14.8365 46.1061 15.0438 46.1653 15.2807C45.4547 15.6064 44.7886 15.9766 44.1668 16.3912C43.545 16.7762 42.9677 17.25 42.4347 17.8127C41.9314 18.3753 41.4873 19.0564 41.1024 19.856C40.7175 20.6556 40.4214 21.6328 40.2141 22.7878C39.9181 24.2389 39.9921 25.4086 40.4362 26.297C40.9099 27.1854 41.5465 27.5556 42.3459 27.4075C42.8196 27.2595 43.2786 26.9781 43.7227 26.5635C44.1076 26.2082 44.5073 25.6751 44.9218 24.9644C45.3659 24.2537 45.7804 23.2764 46.1653 22.0326C46.3134 20.2558 46.4318 18.864 46.5206 17.8571C46.6391 16.8206 46.7427 16.0358 46.8315 15.5028C46.9499 14.8809 47.0388 14.4663 47.098 14.259C47.1868 14.111 47.3645 13.9777 47.6309 13.8592C47.8974 13.7112 48.1935 13.5927 48.5192 13.5039C48.8449 13.415 49.1409 13.3706 49.4074 13.3706C49.6739 13.341 49.8515 13.341 49.9403 13.3706C49.9996 13.4002 50.0292 13.7704 50.0292 14.4811C50.0292 15.1622 49.9996 16.0358 49.9403 17.1019C49.9107 18.1384 49.8663 19.2785 49.8071 20.5223C49.7479 21.7365 49.6887 22.8914 49.6295 23.9871C49.5999 25.0828 49.5703 26.0453 49.5406 26.8745C49.5406 27.674 49.5703 28.1775 49.6295 28.3848Z" fill="#79D222"/>
<path d="M67.0496 13.5927C67.1088 16.1987 67.1532 18.479 67.1828 20.4335C67.2124 22.388 67.2421 24.0316 67.2717 25.3642C67.3013 26.9337 67.3161 28.2811 67.3161 29.4065C67.3457 30.7983 67.2273 32.2346 66.9608 33.7153C66.7239 35.2256 66.3242 36.6026 65.7617 37.8464C65.1991 39.0901 64.4589 40.1118 63.5411 40.9114C62.6232 41.711 61.5129 42.1107 60.2102 42.1107C58.6409 42.1107 57.4418 41.785 56.6128 41.1335C55.7838 40.5116 55.1768 39.8009 54.7919 39.0013C54.407 38.2017 54.1849 37.4466 54.1257 36.7359C54.0665 36.0547 54.0369 35.655 54.0369 35.5365C54.0369 35.2996 54.1849 35.0331 54.481 34.7369C54.7771 34.4408 55.2212 34.1743 55.8134 33.9374C56.0503 33.8485 56.2871 33.7745 56.524 33.7153C56.7312 33.656 56.9385 33.6116 57.1457 33.582C57.353 33.5524 57.5454 33.5672 57.7231 33.6264C57.427 34.1595 57.2494 34.7665 57.1902 35.4477C57.1605 36.1288 57.2494 36.7655 57.4566 37.3577C57.6935 37.9796 58.034 38.4979 58.4781 38.9125C58.9222 39.3271 59.4848 39.5344 60.1658 39.5344C61.1132 39.5344 61.8534 39.253 62.3864 38.6904C62.9489 38.1573 63.3634 37.491 63.6299 36.6914C63.926 35.8919 64.1036 35.0479 64.1628 34.1595C64.2517 33.271 64.2961 32.4863 64.2961 31.8052C64.2961 31.2721 64.2813 30.591 64.2517 29.7618C64.2517 28.903 64.2072 27.9554 64.1184 26.9189C63.7631 27.5112 63.3486 28.0886 62.8749 28.6513C62.4012 29.1843 61.8978 29.6582 61.3649 30.0728C60.8319 30.4874 60.2842 30.8131 59.7216 31.05C59.1887 31.3165 58.6557 31.4498 58.1228 31.4498C57.205 31.4498 56.4648 31.1685 55.9022 30.6058C55.3397 30.0135 54.9103 29.288 54.6143 28.4292C54.3182 27.5408 54.1109 26.5931 53.9925 25.5863C53.9037 24.5498 53.8593 23.6022 53.8593 22.7434C53.8593 22.0919 53.8889 21.3071 53.9481 20.3891C54.0073 19.4414 54.0813 18.5382 54.1701 17.6794C54.259 16.8206 54.3626 16.0803 54.481 15.4584C54.6291 14.8069 54.7771 14.4367 54.9251 14.3479C55.7838 13.8444 56.6276 13.5631 57.4566 13.5039C58.2856 13.4446 58.9074 13.5483 59.3219 13.8148C58.9666 14.0813 58.6706 14.5255 58.4337 15.1474C58.1968 15.7693 58.0044 16.4652 57.8563 17.2352C57.7083 17.9755 57.6047 18.7603 57.5454 19.5895C57.4862 20.3891 57.4566 21.1146 57.4566 21.7661C57.4566 22.2992 57.4714 22.9358 57.501 23.6762C57.5306 24.4165 57.5899 25.1273 57.6787 25.8084C57.7971 26.4895 57.96 27.067 58.1672 27.5408C58.3745 28.0146 58.6409 28.2515 58.9666 28.2515C59.618 28.2515 60.225 28.0146 60.7875 27.5408C61.3501 27.067 61.8386 26.4747 62.2531 25.764C62.6972 25.0532 63.0377 24.2981 63.2746 23.4985C63.5115 22.6693 63.6299 21.8994 63.6299 21.1886V20.8333C63.5707 20.0633 63.5115 19.3378 63.4522 18.6567C63.393 17.9459 63.3338 17.3092 63.2746 16.7466C63.245 16.1839 63.2154 15.7249 63.1858 15.3695C63.1858 14.9846 63.1858 14.7328 63.1858 14.6144C63.1858 14.3182 63.3782 14.0517 63.7631 13.8148C64.1776 13.5779 64.6217 13.415 65.0955 13.3262C65.5988 13.2077 66.0429 13.1633 66.4278 13.1929C66.8423 13.2225 67.0496 13.3558 67.0496 13.5927Z" fill="#79D222"/>
<path d="M79.9841 20.0337C80.6059 20.3002 81.1981 20.7296 81.7606 21.3219C82.3232 21.8846 82.6785 22.7434 82.8265 23.8983C82.9449 24.9052 83.1078 25.8084 83.315 26.608C83.5223 27.4075 83.8184 28.1331 84.2033 28.7846C84.5882 29.4065 85.0915 29.9691 85.7133 30.4725C86.3647 30.9464 87.1937 31.361 88.2004 31.7163C87.9339 31.9532 87.6082 32.1457 87.2233 32.2938C86.868 32.4419 86.5275 32.5455 86.2018 32.6047C85.8169 32.7232 85.4172 32.7824 85.0027 32.7824C84.0256 32.8713 83.2262 32.738 82.6045 32.3826C81.9827 32.0569 81.4941 31.5683 81.1389 30.9168C80.7836 30.2652 80.5171 29.5101 80.3394 28.6513C80.1618 27.7925 80.0286 26.9041 79.9397 25.9861C79.9101 25.6011 79.8657 25.2013 79.8065 24.7867C79.7473 24.3721 79.6437 23.9723 79.4956 23.5873C79.3476 23.2024 79.1403 22.847 78.8738 22.5213C78.637 22.1955 78.3261 21.9438 77.9412 21.7661C77.2898 22.2695 76.6829 22.7137 76.1203 23.0987C75.5874 23.4541 75.1136 23.7502 74.6991 23.9871C74.7287 25.5863 74.8027 26.9041 74.9212 27.9406C75.0692 28.9771 75.2617 29.673 75.4985 30.0283C75.2913 30.1764 75.084 30.3097 74.8768 30.4281C74.6695 30.517 74.4919 30.591 74.3438 30.6502C74.1366 30.7391 73.9441 30.7983 73.7665 30.8279C73.1743 31.0056 72.6414 30.976 72.1676 30.7391C71.7235 30.5318 71.4867 29.9543 71.4571 29.0067L71.1906 3.06502C71.1906 2.82811 71.4126 2.5912 71.8568 2.35429C72.3305 2.08777 72.8486 1.88047 73.4112 1.7324C73.9737 1.58434 74.4771 1.5103 74.9212 1.5103C75.3949 1.5103 75.617 1.64356 75.5874 1.91009C75.4985 3.95344 75.4097 5.87833 75.3209 7.68477C75.2321 9.49121 75.1581 11.0903 75.0988 12.4822C75.01 14.111 74.936 15.5916 74.8768 16.9243C74.8176 17.7238 74.7731 18.4938 74.7435 19.2341C74.7435 19.9745 74.7287 20.6852 74.6991 21.3663C75.2617 20.9221 75.8538 20.4335 76.4756 19.9004C77.0974 19.3674 77.6895 18.7751 78.2521 18.1236C78.8146 17.4721 79.2884 16.7762 79.6733 16.0358C80.0582 15.2659 80.2802 14.4515 80.3394 13.5927C80.6651 13.3558 80.9908 13.1633 81.3165 13.0152C81.6718 12.8376 81.9827 12.7043 82.2492 12.6155C82.5748 12.497 82.8709 12.4378 83.1374 12.4378C83.8184 12.4082 84.2181 12.5562 84.3365 12.882C84.4253 13.1189 84.4105 13.4743 84.2921 13.9481C84.2033 14.3923 83.9812 14.9401 83.6259 15.5916C83.3002 16.2135 82.8413 16.9095 82.2492 17.6794C81.657 18.4198 80.902 19.2045 79.9841 20.0337Z" fill="#79D222"/>
<path d="M99.5805 17.0131C99.5805 17.4277 99.462 17.8571 99.2252 18.3013C99.0179 18.7159 98.7514 19.1157 98.4258 19.5007C98.1001 19.8856 97.73 20.2262 97.3155 20.5223C96.9306 20.7889 96.5605 20.9517 96.2052 21.011C96.442 20.0929 96.516 19.3822 96.4272 18.8788C96.3384 18.3753 96.1904 18.0052 95.9831 17.7682C95.7462 17.5017 95.4502 17.3537 95.0949 17.324C94.5619 17.324 94.0438 17.635 93.5404 18.2569C93.0667 18.8491 92.6522 19.5895 92.2969 20.4779C91.9416 21.3367 91.6603 22.2695 91.4531 23.2764C91.2458 24.2537 91.1422 25.1421 91.1422 25.9416C91.1126 26.5043 91.1274 27.0522 91.1866 27.5852C91.2162 28.0294 91.2606 28.4884 91.3198 28.9622C91.4087 29.4361 91.5271 29.8062 91.6751 30.0728C91.4975 30.2208 91.2014 30.3985 90.7869 30.6058C90.402 30.8131 89.9875 30.9464 89.5434 31.0056C89.1289 31.0648 88.744 30.9908 88.3887 30.7835C88.063 30.5762 87.8853 30.132 87.8557 29.4509C87.7965 28.7994 87.7521 28.0738 87.7225 27.2743C87.7225 26.4451 87.7225 25.6307 87.7225 24.8311C87.7521 24.0019 87.7817 23.1876 87.8113 22.388C87.8409 21.5884 87.8853 20.8481 87.9445 20.167C88.0038 18.864 88.0334 17.8571 88.0334 17.1464C88.0334 16.4356 88.0186 15.7545 87.989 15.103C87.989 14.9846 88.1814 14.8217 88.5663 14.6144C88.9808 14.3775 89.4249 14.1702 89.8987 13.9925C90.402 13.8148 90.8609 13.7112 91.2754 13.6816C91.6899 13.6519 91.8972 13.7408 91.8972 13.9481C91.8972 14.2738 91.8528 14.9253 91.764 15.9026C91.7048 16.8502 91.6159 17.8423 91.4975 18.8788C91.7048 18.3161 91.9712 17.709 92.2969 17.0575C92.6522 16.406 93.0519 15.7989 93.496 15.2363C93.9402 14.6736 94.4435 14.2146 95.006 13.8592C95.5686 13.4743 96.1904 13.2818 96.8713 13.2818C97.4043 13.2818 97.8336 13.4446 98.1593 13.7704C98.5146 14.0961 98.7959 14.4663 99.0031 14.8809C99.2104 15.2955 99.3584 15.7101 99.4472 16.1247C99.5361 16.5393 99.5805 16.8354 99.5805 17.0131Z" fill="#79D222"/>
<path d="M114.291 28.3848C114.351 28.5921 114.44 28.7846 114.558 28.9622C114.647 29.1103 114.765 29.2584 114.913 29.4065C115.091 29.5249 115.298 29.5989 115.535 29.6286C115.328 30.0431 115.121 30.3245 114.913 30.4725C114.795 30.5614 114.691 30.6206 114.602 30.6502C114.336 30.7391 113.936 30.7835 113.403 30.7835C112.87 30.7835 112.352 30.6206 111.849 30.2949C111.671 30.1468 111.508 29.9247 111.36 29.6286C111.212 29.3916 111.079 29.0659 110.961 28.6513C110.872 28.2071 110.798 27.6444 110.739 26.9633C110.324 27.8517 109.85 28.5625 109.317 29.0955C108.814 29.5989 108.311 29.9691 107.807 30.206C107.245 30.5318 106.667 30.7243 106.075 30.7835C105.335 30.8427 104.624 30.7243 103.944 30.4281C103.292 30.1024 102.73 29.6286 102.256 29.0067C101.812 28.3552 101.471 27.5704 101.234 26.6524C100.998 25.7343 100.923 24.6979 101.012 23.5429C101.101 22.3288 101.338 21.2479 101.723 20.3002C102.108 19.3526 102.567 18.5086 103.1 17.7682C103.633 17.0279 104.195 16.406 104.787 15.9026C105.379 15.3695 105.942 14.9401 106.475 14.6144C107.038 14.259 107.511 14.0073 107.896 13.8592C108.311 13.6816 108.577 13.5779 108.696 13.5483C109.021 13.4594 109.303 13.4298 109.539 13.4594C109.776 13.4891 109.984 13.6223 110.161 13.8592C110.22 13.9481 110.294 14.0517 110.383 14.1702C110.442 14.2886 110.516 14.4515 110.605 14.6588C110.694 14.8365 110.768 15.0438 110.827 15.2807C110.117 15.6064 109.451 15.9766 108.829 16.3912C108.207 16.7762 107.63 17.25 107.097 17.8127C106.593 18.3753 106.149 19.0564 105.764 19.856C105.379 20.6556 105.083 21.6328 104.876 22.7878C104.58 24.2389 104.654 25.4086 105.098 26.297C105.572 27.1854 106.209 27.5556 107.008 27.4075C107.482 27.2595 107.941 26.9781 108.385 26.5635C108.77 26.2082 109.169 25.6751 109.584 24.9644C110.028 24.2537 110.442 23.2764 110.827 22.0326C110.975 20.2558 111.094 18.864 111.183 17.8571C111.301 16.8206 111.405 16.0358 111.494 15.5028C111.612 14.8809 111.701 14.4663 111.76 14.259C111.849 14.111 112.026 13.9777 112.293 13.8592C112.559 13.7112 112.855 13.5927 113.181 13.5039C113.507 13.415 113.803 13.3706 114.069 13.3706C114.336 13.341 114.514 13.341 114.602 13.3706C114.662 13.4002 114.691 13.7704 114.691 14.4811C114.691 15.1622 114.662 16.0358 114.602 17.1019C114.573 18.1384 114.528 19.2785 114.469 20.5223C114.41 21.7365 114.351 22.8914 114.291 23.9871C114.262 25.0828 114.232 26.0453 114.203 26.8745C114.203 27.674 114.232 28.1775 114.291 28.3848Z" fill="#79D222"/>
<path d="M126.96 1.77682C127.818 1.83605 128.588 2.04335 129.269 2.39871C129.861 2.72446 130.394 3.24271 130.868 3.95344C131.342 4.63455 131.593 5.6118 131.623 6.8852C131.179 7.21095 130.735 7.44786 130.29 7.59593C129.846 7.74399 129.447 7.84764 129.091 7.90687C128.677 7.9661 128.277 7.9661 127.892 7.90687C128.011 7.07769 128.011 6.44099 127.892 5.99678C127.803 5.55258 127.67 5.22683 127.492 5.01953C127.285 4.78262 127.019 4.64936 126.693 4.61974C125.716 4.61974 124.991 5.36009 124.517 6.84078C124.073 8.29185 123.806 10.2908 123.717 12.8376C124.132 12.7783 124.502 12.7043 124.828 12.6155C125.153 12.5266 125.524 12.4674 125.938 12.4378C126.323 12.4082 126.693 12.3934 127.048 12.3934C127.374 12.3934 127.7 12.423 128.025 12.4822C128.381 12.5414 128.706 12.6451 129.003 12.7931C129.062 13.2966 129.062 13.7556 129.003 14.1702C128.943 14.5848 128.854 14.9549 128.736 15.2807C128.618 15.6361 128.455 15.9766 128.247 16.3024C127.892 16.1247 127.448 16.0062 126.915 15.947C126.412 15.8878 125.923 15.8582 125.45 15.8582C124.887 15.8582 124.31 15.8878 123.717 15.947C123.747 17.3092 123.777 18.5974 123.806 19.8116C123.836 20.9961 123.866 22.1659 123.895 23.3208C123.954 24.4461 124.014 25.5863 124.073 26.7412C124.132 27.8665 124.191 29.0215 124.25 30.206C123.925 30.6206 123.569 30.8723 123.185 30.9612C122.829 31.0796 122.489 31.124 122.163 31.0944C121.778 31.0648 121.393 30.9612 121.008 30.7835C120.771 28.829 120.579 26.9929 120.431 25.2753C120.313 23.5281 120.209 22.003 120.12 20.7C120.002 19.1897 119.913 17.7979 119.854 16.5245C119.35 16.5837 118.921 16.6281 118.566 16.6577C118.24 16.6577 117.988 16.6429 117.811 16.6133C117.692 16.6133 117.633 16.5245 117.633 16.3468L117.589 14.259C117.589 14.1406 117.648 14.0813 117.766 14.0813C117.974 14.0221 118.24 13.9629 118.566 13.9037C118.921 13.8148 119.336 13.7112 119.809 13.5927C119.928 9.83176 120.564 6.92962 121.719 4.88627C122.874 2.81331 124.621 1.77682 126.96 1.77682Z" fill="#79D222"/>
<path d="M147 10.8831C146.674 10.8238 146.23 10.7646 145.668 10.7054C145.135 10.6461 144.587 10.6017 144.024 10.5721C143.373 10.5425 142.677 10.5277 141.937 10.5277C141.197 10.4685 140.264 10.4685 139.139 10.5277C138.044 10.5573 136.889 10.5721 135.675 10.5721C135.645 11.3421 135.586 12.1268 135.497 12.9264C135.438 13.726 135.379 14.5107 135.32 15.2807C135.172 16.7022 135.038 18.1532 134.92 19.6339C134.831 21.1146 134.787 22.5213 134.787 23.8539C134.787 25.1865 134.861 26.4007 135.009 27.4964C135.186 28.5625 135.497 29.4065 135.941 30.0283C135.586 30.2949 135.201 30.5022 134.787 30.6502C134.372 30.7687 134.002 30.8575 133.676 30.9168C133.292 31.0056 132.907 31.05 132.522 31.05C132.166 31.05 131.87 30.9316 131.633 30.6946C131.397 30.4577 131.263 30.0431 131.234 29.4509C131.175 28.444 131.16 27.4371 131.189 26.4303C131.249 25.3938 131.308 24.3129 131.367 23.1876C131.456 22.0622 131.545 20.8629 131.633 19.5895C131.722 18.2865 131.811 16.865 131.9 15.3251C131.989 13.726 132.033 12.1713 132.033 10.6609C130.908 10.6906 129.961 10.7054 129.191 10.7054C128.421 10.7054 127.992 10.6906 127.903 10.6609C127.814 10.6017 127.71 10.4685 127.592 10.2612C127.474 10.0835 127.326 9.81696 127.148 9.46159C126.941 9.10623 126.689 8.60279 126.393 7.95129C126.955 7.95129 127.577 7.95129 128.258 7.95129C128.91 7.95129 129.516 7.93648 130.079 7.90687C130.73 7.87726 131.382 7.84764 132.033 7.81803C132.004 7.34421 131.989 6.84078 131.989 6.30773C131.959 5.89314 131.944 5.43412 131.944 4.93069C131.944 4.39764 131.93 3.90901 131.9 3.46481C131.9 3.28713 132.107 3.07983 132.522 2.84292C132.966 2.5764 133.44 2.33949 133.943 2.13219C134.446 1.92489 134.905 1.79163 135.32 1.7324C135.764 1.67318 135.986 1.77682 135.986 2.04335C135.986 2.30987 135.971 2.96137 135.941 3.99786C135.941 5.00472 135.912 6.23369 135.853 7.68477C136.149 7.68477 136.371 7.66996 136.519 7.64035C138.088 7.58112 139.346 7.52189 140.294 7.46266C141.271 7.37382 142.07 7.35902 142.692 7.41824C143.314 7.47747 143.862 7.62554 144.335 7.86245C144.809 8.09936 145.342 8.48434 145.934 9.01739C146.141 9.19507 146.319 9.38756 146.467 9.59485C146.615 9.77254 146.734 9.97983 146.822 10.2167C146.941 10.424 147 10.6461 147 10.8831Z" fill="#79D222"/>
<path d="M76.4603 39.9589C76.8482 39.9249 77.2569 39.9509 77.6862 40.0368C78.1155 40.1227 78.5158 40.2884 78.8871 40.5337C79.2676 40.768 79.5894 41.0948 79.8525 41.5143C80.1146 41.9235 80.2729 42.4396 80.3274 43.0625C80.3765 43.6242 80.3171 44.1799 80.1492 44.7297C79.9914 45.2786 79.7378 45.7895 79.3882 46.2626C79.0488 46.7348 78.6224 47.1528 78.109 47.5167C77.5947 47.8704 77.0106 48.1325 76.3568 48.3029C76.3934 48.7216 76.4404 49.0828 76.4979 49.3864C76.5331 49.6715 76.5647 49.9157 76.5928 50.119C76.6302 50.3113 76.6603 50.4784 76.683 50.6205C76.7159 50.7617 76.7475 50.8875 76.7777 50.9981C76.8089 51.1188 76.8447 51.234 76.8851 51.3437C76.6943 51.5147 76.5102 51.644 76.3326 51.7316C76.1551 51.8192 75.9962 51.8845 75.8559 51.9277C75.6962 51.9828 75.5439 52.0064 75.3992 51.9985C75.3365 51.8702 75.2776 51.7262 75.2225 51.5664C75.1683 51.4167 75.1198 51.2152 75.077 50.9617C75.0445 50.7073 75.0112 50.386 74.9773 49.998C74.9425 49.5997 74.9084 49.0933 74.8753 48.4788C74.7927 48.4758 74.7055 48.4783 74.6136 48.4863C74.5208 48.4841 74.4327 48.4764 74.3492 48.4631C74.2634 48.306 74.205 48.1671 74.1739 48.0463C74.1427 47.9255 74.1236 47.8243 74.1164 47.7426C74.1075 47.6405 74.1106 47.5579 74.1256 47.4949C74.2082 47.4979 74.2908 47.501 74.3733 47.5041C74.455 47.4969 74.5316 47.4902 74.6031 47.4839C74.6856 47.487 74.7626 47.4854 74.8341 47.4792C74.8135 47.0076 74.7914 46.5208 74.7681 46.0186C74.7541 45.5053 74.7312 45.0083 74.6994 44.5274C74.6778 44.0457 74.6529 43.5848 74.6247 43.1448C74.6059 42.6937 74.5863 42.2941 74.5662 41.946C74.2777 42.177 74.0304 42.4662 73.8242 42.8135C73.6281 43.16 73.5131 43.5508 73.4792 43.9859C73.3447 43.9771 73.227 43.9257 73.1262 43.8316C73.0245 43.7273 72.9381 43.6217 72.867 43.5147C72.7839 43.3882 72.7097 43.2455 72.6443 43.0866C72.5763 42.897 72.5593 42.703 72.5934 42.5045C72.6164 42.2967 72.6713 42.1015 72.7583 41.919C72.8443 41.7262 72.9478 41.5576 73.069 41.4133C73.1892 41.2587 73.307 41.1352 73.4224 41.0428C73.6354 40.8904 73.8497 40.7533 74.0654 40.6315C74.2802 40.4995 74.5274 40.3853 74.807 40.2888C74.9095 40.1666 75.0231 40.0538 75.1478 39.9503C75.2827 39.8458 75.4156 39.7776 75.5465 39.7456C75.7063 39.6904 75.8076 39.7896 75.8503 40.0431C75.9413 40.0249 76.0379 40.0113 76.14 40.0023C76.2412 39.9832 76.3479 39.9687 76.4603 39.9589ZM76.2563 47.1541C76.5248 47.0482 76.8153 46.8993 77.1277 46.7074C77.4401 46.5154 77.7277 46.2741 77.9903 45.9836C78.2521 45.6829 78.4625 45.3249 78.6217 44.9096C78.7809 44.4944 78.8359 44.006 78.7867 43.4443C78.7492 43.0154 78.6409 42.6596 78.4619 42.3768C78.2921 42.083 78.0818 41.8544 77.8309 41.6912C77.5791 41.5177 77.3067 41.4026 77.0137 41.3459C76.73 41.2781 76.4503 41.2563 76.1746 41.2804C76.1236 41.2849 76.0725 41.2894 76.0215 41.2938C75.9704 41.2983 75.9198 41.3079 75.8697 41.3226C75.8676 41.652 75.8831 42.0057 75.9162 42.3835C75.9385 42.6388 75.9606 42.9507 75.9826 43.3192C76.0036 43.6775 76.0274 44.0665 76.0538 44.4861C76.0802 44.9057 76.1084 45.3457 76.1384 45.8061C76.1786 46.2656 76.2179 46.715 76.2563 47.1541Z" fill="#79D222"/>
<path d="M83.8013 44.3946C83.796 44.3334 83.8719 44.2599 84.029 44.1741C84.1861 44.0883 84.3598 44.0165 84.5502 43.9587C84.75 43.8897 84.9315 43.8481 85.0949 43.8338C85.2676 43.8084 85.3575 43.8366 85.3646 43.9183C85.378 44.0715 85.387 44.2919 85.3916 44.5796C85.3953 44.8571 85.3957 45.1555 85.3927 45.4748C85.3889 45.7838 85.3855 46.0979 85.3826 46.4172C85.3787 46.7262 85.3811 46.9884 85.3896 47.2038C85.3889 47.4302 85.3899 47.6771 85.3927 47.9444C85.3919 48.1708 85.3985 48.4224 85.4124 48.699C85.4263 48.9756 85.4509 49.2564 85.4861 49.5415C85.4906 49.5925 85.444 49.648 85.3464 49.708C85.2487 49.768 85.1395 49.8136 85.0188 49.8448C84.899 49.8861 84.7829 49.9117 84.6706 49.9215C84.5583 49.9314 84.4952 49.9163 84.4815 49.8763C84.4575 49.8373 84.4308 49.7676 84.4014 49.6672C84.3721 49.5669 84.3392 49.4257 84.3027 49.2437C84.2653 49.0515 84.2285 48.8077 84.1924 48.5125C84.1554 48.207 84.1283 47.8389 84.1112 47.4082C84.0779 46.5571 84.0259 45.9031 83.9551 45.4462C83.8833 44.9792 83.8321 44.6286 83.8013 44.3946ZM84.6068 41.2526C84.811 41.2347 85.0103 41.279 85.2048 41.3855C85.3993 41.4919 85.5055 41.6473 85.5233 41.8515C85.5367 42.0047 85.5089 42.1563 85.4397 42.3065C85.3807 42.4557 85.3 42.5914 85.1975 42.7135C85.095 42.8357 84.9754 42.9388 84.8387 43.0228C84.7012 43.0965 84.5711 43.1388 84.4486 43.1495C84.2852 43.1638 84.1503 43.1499 84.0437 43.1078C83.9363 43.0554 83.8488 42.9962 83.7813 42.9301C83.7231 42.8528 83.6797 42.7692 83.6513 42.6791C83.6228 42.5889 83.605 42.503 83.5979 42.4213C83.5889 42.3192 83.5944 42.2055 83.6143 42.0803C83.6334 41.9449 83.6792 41.8225 83.752 41.7133C83.8238 41.5938 83.9281 41.4921 84.0648 41.4081C84.2015 41.3241 84.3821 41.2722 84.6068 41.2526ZM84.3485 42.7107C84.4097 42.7053 84.4743 42.6791 84.5422 42.632C84.6194 42.5737 84.686 42.5113 84.7419 42.4447C84.808 42.3772 84.8583 42.3059 84.8929 42.2308C84.9377 42.1549 84.9579 42.0914 84.9534 42.0403C84.9463 41.9586 84.9019 41.9213 84.8202 41.9285C84.7691 41.933 84.7046 41.9592 84.6265 42.0072C84.5586 42.0543 84.4916 42.1116 84.4254 42.1791C84.3584 42.2364 84.3025 42.3031 84.2578 42.379C84.2223 42.4439 84.2072 42.5069 84.2126 42.5682C84.2215 42.6703 84.2668 42.7178 84.3485 42.7107Z" fill="#79D222"/>
<path d="M93.9322 47.0273C93.9421 47.1397 93.9164 47.3168 93.8553 47.5589C93.8035 47.7898 93.701 48.0303 93.548 48.2803C93.3941 48.5202 93.1869 48.739 92.9264 48.9367C92.6761 49.1335 92.357 49.2489 91.969 49.2829C91.4177 49.3311 90.9402 49.2237 90.5365 48.9606C90.1422 48.6864 89.8439 48.2752 89.6416 47.7269C89.478 47.2679 89.3985 46.7707 89.4031 46.2352C89.417 45.6886 89.5213 45.1752 89.7159 44.6952C89.9105 44.2151 90.2033 43.7984 90.5942 43.4452C90.9842 43.0818 91.4791 42.8584 92.0788 42.7751C92.3842 42.7381 92.6444 42.7719 92.8593 42.8766C93.0742 42.9813 93.2463 43.1257 93.3756 43.3099C93.5049 43.4941 93.59 43.7027 93.631 43.9358C93.671 44.1587 93.6643 44.3754 93.6107 44.5859C93.5673 44.7955 93.4803 44.978 93.3499 45.1335C93.2288 45.2778 93.0615 45.3645 92.848 45.3935C92.6353 45.4327 92.4544 45.4228 92.3053 45.3638C92.1654 45.2937 92.0497 45.2061 91.9582 45.1009C91.8769 44.9948 91.8156 44.8819 91.7742 44.762C91.7431 44.6412 91.7337 44.534 91.7461 44.4403C91.7651 44.3049 91.8054 44.1779 91.8671 44.0593C91.9194 43.9518 91.9972 43.8421 92.1006 43.7302C92.2142 43.6173 92.3653 43.5218 92.5539 43.4435C92.5215 43.4258 92.49 43.4183 92.4594 43.4209C92.4287 43.4236 92.3977 43.4212 92.3661 43.4137C92.3253 43.4172 92.2942 43.4148 92.2729 43.4064C92.1096 43.4207 91.9256 43.4934 91.721 43.6245C91.5266 43.7547 91.3432 43.9508 91.1706 44.2128C91.0083 44.474 90.8777 44.8044 90.7789 45.2041C90.6895 45.5927 90.6684 46.0576 90.7157 46.5988C90.7363 46.8337 90.7824 47.0663 90.854 47.2967C90.9247 47.5169 91.0191 47.7144 91.1373 47.8893C91.2648 48.0531 91.41 48.1844 91.573 48.2834C91.7453 48.3712 91.9386 48.4057 92.153 48.387C92.3981 48.3655 92.608 48.2957 92.7828 48.1775C92.967 48.0482 93.1192 47.9063 93.2394 47.7517C93.3597 47.5971 93.4492 47.4452 93.5082 47.296C93.5774 47.1459 93.6242 47.0337 93.6485 46.9596C93.6738 46.8956 93.7222 46.8605 93.7936 46.8542C93.8753 46.8471 93.9215 46.9048 93.9322 47.0273Z" fill="#79D222"/>
<path d="M103.131 41.2986C103.017 41.288 102.862 41.281 102.666 41.2775C102.481 41.2732 102.291 41.2744 102.096 41.2812C101.87 41.2906 101.63 41.3065 101.375 41.3288C101.117 41.3307 100.796 41.3589 100.41 41.4132C100.033 41.4565 99.6351 41.4965 99.2165 41.5331C99.2295 41.7995 99.2327 42.0719 99.2262 42.3503C99.2299 42.6278 99.2332 42.9002 99.236 43.1675C99.2278 43.6622 99.2256 44.1666 99.2294 44.6807C99.2435 45.194 99.2706 45.6804 99.3108 46.1399C99.351 46.5995 99.4131 47.0159 99.4972 47.3893C99.5906 47.7516 99.7233 48.0332 99.8952 48.2343C99.7807 48.3369 99.6543 48.42 99.5158 48.4836C99.3764 48.5369 99.2515 48.5787 99.141 48.609C99.0109 48.6512 98.8795 48.6782 98.7468 48.6898C98.6243 48.7005 98.5186 48.6686 98.4298 48.594C98.341 48.5195 98.2825 48.3805 98.2544 48.1772C98.2036 47.8318 98.1682 47.485 98.148 47.1369C98.1372 46.7777 98.125 46.4032 98.1115 46.0134C98.1081 45.6226 98.1026 45.2064 98.0948 44.7646C98.0861 44.3126 98.0739 43.8197 98.0581 43.286C98.0405 42.7319 98.0089 42.1944 97.9633 41.6736C97.5762 41.7178 97.25 41.7515 96.9845 41.7747C96.7191 41.7979 96.5706 41.8058 96.539 41.7983C96.5066 41.7805 96.4669 41.7377 96.4198 41.6698C96.3736 41.6121 96.3145 41.5246 96.2425 41.4075C96.1603 41.2912 96.0583 41.1252 95.9366 40.9094C96.1306 40.8925 96.345 40.8737 96.5798 40.8531C96.8044 40.8335 97.0133 40.8101 97.2064 40.7829C97.4301 40.753 97.6538 40.7232 97.8776 40.6933C97.8531 40.5308 97.8328 40.3576 97.8167 40.1738C97.794 40.0317 97.775 39.8739 97.7598 39.7003C97.7438 39.5165 97.7239 39.3484 97.7003 39.1962C97.695 39.1349 97.7602 39.0571 97.896 38.9629C98.0411 38.8576 98.1973 38.7616 98.3646 38.675C98.5319 38.5883 98.6862 38.5285 98.8273 38.4956C98.9787 38.4617 99.0584 38.4908 99.0664 38.5827C99.0744 38.6746 99.089 38.8997 99.11 39.258C99.1404 39.6052 99.1673 40.0299 99.1906 40.5321C99.2927 40.5231 99.3689 40.5113 99.419 40.4967C99.9584 40.4289 100.39 40.3705 100.715 40.3215C101.05 40.2614 101.325 40.2321 101.541 40.2338C101.757 40.2355 101.951 40.27 102.121 40.3374C102.292 40.4048 102.487 40.5215 102.707 40.6874C102.784 40.7424 102.851 40.8034 102.909 40.8705C102.965 40.9273 103.012 40.9952 103.05 41.0742C103.097 41.1421 103.124 41.2169 103.131 41.2986Z" fill="#79D222"/>
<path d="M107.112 42.077C107.102 41.9647 107.162 41.8772 107.29 41.8145C107.427 41.7407 107.573 41.6971 107.726 41.6837C107.889 41.6694 108.04 41.6871 108.178 41.7368C108.315 41.7762 108.383 41.8423 108.381 41.9351C108.377 42.0075 108.379 42.1514 108.388 42.3667C108.395 42.5718 108.401 42.8183 108.406 43.106C108.421 43.3928 108.432 43.7005 108.44 44.0291C108.449 44.3576 108.456 44.6811 108.463 44.9995C108.48 45.3067 108.495 45.5935 108.508 45.8599C108.531 46.1254 108.549 46.3297 108.561 46.4726C108.578 46.6565 108.603 46.8241 108.636 46.9755C108.668 47.1064 108.706 47.2369 108.748 47.367C108.789 47.4869 108.843 47.5697 108.908 47.6154C108.829 47.6531 108.744 47.6812 108.653 47.6994C108.573 47.7168 108.497 47.7337 108.426 47.7502C108.346 47.7675 108.264 47.7798 108.183 47.7869C108.009 47.8021 107.858 47.7793 107.729 47.7186C107.611 47.6569 107.541 47.5137 107.522 47.2891C107.512 47.1767 107.503 47.0129 107.494 46.7976C107.496 46.5813 107.496 46.3498 107.495 46.1029C107.442 46.3236 107.375 46.5508 107.292 46.7844C107.21 47.0179 107.1 47.2282 106.962 47.4153C106.834 47.6014 106.683 47.7586 106.509 47.887C106.335 48.0154 106.131 48.0899 105.896 48.1105C105.631 48.1337 105.381 48.099 105.146 48.0063C104.922 47.9127 104.719 47.771 104.538 47.581C104.356 47.3809 104.211 47.1312 104.102 46.832C103.994 46.5328 103.932 46.1832 103.918 45.7831C103.891 45.4767 103.868 45.1495 103.847 44.8014C103.832 44.5044 103.817 44.1609 103.804 43.7711C103.79 43.3813 103.791 42.9748 103.805 42.5516C103.812 42.5099 103.879 42.4526 104.006 42.3797C104.133 42.3068 104.277 42.2428 104.437 42.1876C104.596 42.1325 104.753 42.1033 104.907 42.1001C105.061 42.0969 105.179 42.1484 105.26 42.2545C105.225 42.4427 105.194 42.6668 105.165 42.9265C105.135 43.1761 105.112 43.4354 105.094 43.7045C105.076 43.9736 105.069 44.2367 105.07 44.4937C105.072 44.7508 105.083 44.9866 105.102 45.201C105.118 45.3951 105.147 45.6086 105.188 45.8417C105.228 46.0646 105.283 46.2759 105.352 46.4757C105.43 46.6643 105.526 46.8206 105.64 46.9444C105.764 47.0673 105.912 47.1212 106.086 47.106C106.28 47.089 106.441 46.9926 106.57 46.8167C106.708 46.6297 106.816 46.399 106.895 46.1245C106.974 45.8501 107.035 45.5412 107.077 45.198C107.118 44.8445 107.144 44.4975 107.155 44.157C107.177 43.8155 107.179 43.4911 107.163 43.1839C107.155 42.8655 107.148 42.5987 107.139 42.3833L107.112 42.077Z" fill="#79D222"/>
<path d="M116.672 42.2437C116.685 42.3867 116.657 42.5383 116.589 42.6986C116.53 42.8479 116.45 42.9938 116.349 43.1363C116.249 43.2789 116.131 43.4075 115.997 43.5221C115.873 43.6257 115.75 43.693 115.629 43.7241C115.683 43.4004 115.687 43.1531 115.641 42.9822C115.596 42.8113 115.533 42.6881 115.455 42.6126C115.365 42.5279 115.258 42.4858 115.135 42.4863C114.951 42.5023 114.782 42.6252 114.627 42.8549C114.482 43.0734 114.361 43.3412 114.265 43.6583C114.169 43.9651 114.1 44.2953 114.059 44.6488C114.017 44.992 114.008 45.3015 114.032 45.5772C114.039 45.7721 114.06 45.9606 114.097 46.1426C114.12 46.2949 114.15 46.4519 114.184 46.6135C114.229 46.7742 114.281 46.8982 114.34 46.9857C114.284 47.0421 114.187 47.1123 114.05 47.1963C113.924 47.2794 113.785 47.3379 113.633 47.3717C113.492 47.4046 113.357 47.3907 113.228 47.3299C113.11 47.2683 113.035 47.1205 113.004 46.8865C112.964 46.6636 112.927 46.4148 112.893 46.1399C112.868 45.854 112.843 45.5732 112.819 45.2975C112.804 45.0106 112.79 44.7289 112.776 44.4523C112.762 44.1757 112.755 43.919 112.755 43.6824C112.736 43.2313 112.716 42.8832 112.695 42.6381C112.673 42.393 112.647 42.1586 112.618 41.9348C112.614 41.894 112.676 41.832 112.802 41.7489C112.938 41.6547 113.085 41.5698 113.243 41.4942C113.411 41.4178 113.566 41.3682 113.708 41.3455C113.85 41.3227 113.924 41.3471 113.931 41.4186C113.94 41.5309 113.945 41.7569 113.944 42.0966C113.952 42.4252 113.951 42.77 113.941 43.1309C113.996 42.9307 114.069 42.7133 114.162 42.4788C114.265 42.2434 114.385 42.022 114.521 41.8146C114.657 41.6071 114.817 41.4337 115 41.2942C115.182 41.1444 115.391 41.0593 115.626 41.0387C115.809 41.0227 115.962 41.0659 116.085 41.1684C116.217 41.27 116.325 41.3891 116.409 41.5259C116.493 41.6626 116.557 41.8011 116.6 41.9414C116.643 42.0816 116.667 42.1824 116.672 42.2437Z" fill="#79D222"/>
<path d="M122.62 46.6316C121.906 46.6941 121.333 46.5024 120.903 46.0564C120.474 45.6104 120.225 44.9993 120.157 44.2232C120.109 43.682 120.142 43.1698 120.254 42.6866C120.375 42.1924 120.553 41.76 120.788 41.3896C121.024 41.0192 121.306 40.7217 121.636 40.4973C121.976 40.2618 122.34 40.1271 122.728 40.0931C123.105 40.0601 123.439 40.1698 123.729 40.4223C124.017 40.6646 124.183 41.0359 124.227 41.5363C124.256 41.8631 124.213 42.1961 124.099 42.5354C123.983 42.8645 123.819 43.1669 123.607 43.4428C123.404 43.7075 123.171 43.9286 122.909 44.1059C122.647 44.2832 122.388 44.383 122.132 44.4053C121.969 44.4196 121.83 44.4112 121.714 44.3802C121.598 44.3492 121.49 44.2969 121.391 44.2232C121.473 44.8026 121.636 45.1999 121.881 45.4151C122.126 45.6201 122.426 45.707 122.784 45.6757C123.029 45.6543 123.239 45.5845 123.414 45.4663C123.599 45.3472 123.752 45.2154 123.873 45.0711C123.994 44.9267 124.09 44.7846 124.16 44.6447C124.229 44.4946 124.276 44.3824 124.3 44.3083C124.325 44.2443 124.374 44.2092 124.445 44.2029C124.527 44.1958 124.573 44.2535 124.584 44.376C124.593 44.4884 124.568 44.6655 124.507 44.9076C124.455 45.1385 124.352 45.379 124.199 45.629C124.046 45.8689 123.838 46.0877 123.578 46.2854C123.328 46.4822 123.008 46.5976 122.62 46.6316ZM122.816 40.7491C122.755 40.7545 122.643 40.8311 122.481 40.9791C122.328 41.1159 122.166 41.3154 121.993 41.5774C121.831 41.8386 121.683 42.1499 121.55 42.5114C121.427 42.8618 121.363 43.2533 121.36 43.6857C121.96 43.4892 122.425 43.2221 122.756 42.8844C123.086 42.5468 123.226 42.0819 123.174 41.4896C123.148 41.1934 123.095 40.9974 123.014 40.9016C122.933 40.7955 122.867 40.7447 122.816 40.7491Z" fill="#79D222"/>
<path d="M130.783 42.8148C131.015 42.8769 131.236 42.9347 131.446 42.9883C131.657 43.0419 131.843 43.1131 132.005 43.2018C132.167 43.2906 132.3 43.4024 132.405 43.5373C132.508 43.662 132.569 43.8265 132.587 44.0307C132.608 44.2758 132.572 44.5105 132.479 44.7348C132.395 44.9582 132.259 45.1605 132.069 45.3417C131.879 45.523 131.64 45.6725 131.352 45.7903C131.075 45.9175 130.758 45.9967 130.4 46.028C130.002 46.0628 129.677 46.0501 129.425 45.9898C129.174 45.9398 128.977 45.8695 128.835 45.779C128.694 45.6885 128.598 45.594 128.548 45.4954C128.498 45.3969 128.471 45.317 128.466 45.2557C128.455 45.1332 128.469 44.9982 128.507 44.8508C128.545 44.6931 128.628 44.5212 128.755 44.3351C128.81 44.2583 128.871 44.1861 128.937 44.1186C129.069 43.9835 129.206 43.8944 129.346 43.8513C129.346 44.0879 129.388 44.2797 129.473 44.4267C129.567 44.5625 129.679 44.6659 129.809 44.7368C129.949 44.8069 130.097 44.8506 130.253 44.8678C130.419 44.8842 130.573 44.8861 130.716 44.8736C130.859 44.8611 131 44.8281 131.14 44.7748C131.289 44.7205 131.422 44.6574 131.54 44.5854C131.656 44.5032 131.746 44.4181 131.811 44.3302C131.884 44.2311 131.916 44.1305 131.908 44.0284C131.898 43.9161 131.844 43.8282 131.746 43.7648C131.647 43.7013 131.525 43.6554 131.379 43.6271C131.241 43.5876 131.09 43.5649 130.925 43.5587C130.769 43.5415 130.619 43.5238 130.473 43.5057C130.327 43.4876 130.13 43.4637 129.88 43.4341C129.64 43.3933 129.397 43.322 129.152 43.22C128.916 43.1171 128.703 42.9711 128.512 42.7821C128.33 42.5921 128.225 42.3287 128.195 41.9917C128.162 41.6036 128.229 41.2581 128.398 40.9552C128.576 40.6412 128.8 40.3747 129.069 40.1557C129.347 39.9255 129.645 39.7451 129.963 39.6144C130.281 39.4837 130.567 39.4071 130.822 39.3848C130.955 39.3732 131.1 39.3811 131.257 39.4086C131.412 39.4258 131.561 39.4746 131.701 39.5548C131.841 39.6249 131.958 39.7279 132.053 39.8637C132.157 39.9986 132.219 40.1784 132.239 40.4031C132.258 40.6277 132.254 40.8133 132.226 40.9599C132.207 41.0953 132.165 41.207 132.101 41.295C132.046 41.3718 131.973 41.4245 131.883 41.4529C131.793 41.4814 131.686 41.501 131.564 41.5117C131.482 41.5188 131.405 41.5153 131.332 41.5012C131.269 41.4861 131.2 41.4715 131.127 41.4573C131.054 41.4431 130.984 41.4132 130.919 41.3675C131.01 41.236 131.076 41.1119 131.118 40.9951C131.169 40.8774 131.188 40.7369 131.173 40.5735C131.161 40.4305 131.109 40.3064 131.017 40.2012C130.936 40.0952 130.809 40.0497 130.635 40.0649C130.451 40.081 130.276 40.1324 130.108 40.219C129.951 40.3048 129.812 40.4148 129.69 40.549C129.578 40.6822 129.488 40.8341 129.421 41.0047C129.363 41.1641 129.342 41.3357 129.358 41.5195C129.382 41.7952 129.507 42.0467 129.732 42.2739C129.968 42.5003 130.318 42.6806 130.783 42.8148Z" fill="#79D222"/>
</svg>
