<svg width="58" height="58" viewBox="0 0 58 58" fill="none" xmlns="http://www.w3.org/2000/svg">
<g clip-path="url(#clip0)">
<path d="M57.0497 7.87683H0.322424C-0.033411 7.87683 -0.322205 8.16562 -0.322205 8.52146V48.8514C-0.322205 49.2078 -0.033411 49.496 0.322424 49.496H57.0497C57.4062 49.496 57.6944 49.2078 57.6944 48.8514V8.52146C57.6944 8.16562 57.4062 7.87683 57.0497 7.87683ZM8.09665 28.0415H0.967053V22.2398H8.09665V28.0415ZM8.09665 29.3307V35.1324H0.967053V29.3307H8.09665ZM8.09665 20.9505H0.967053V15.1489H8.09665V20.9505ZM0.967053 36.4216H8.09665V42.2233H0.967053V36.4216ZM9.3859 9.16609H47.9863V48.2067H9.3859V9.16609ZM49.2755 29.3307H56.4051V35.1324H49.2755V29.3307ZM49.2755 28.0415V22.2398H56.4051V28.0415H49.2755ZM49.2755 20.9505V15.1489H56.4051V20.9505H49.2755ZM49.2755 36.4216H56.4051V42.2233H49.2755V36.4216ZM56.4051 13.8596H49.2755V9.16609H56.4051V13.8596ZM8.09665 9.16609V13.8596H0.967053V9.16609H8.09665ZM0.967053 43.5125H8.09665V48.2061H0.967053V43.5125ZM49.2755 48.2061V43.5125H56.4051V48.2061H49.2755Z" fill="white"/>
<path d="M21.5952 37.2487C21.4823 37.2487 21.3695 37.2191 21.269 37.1598C21.0717 37.0444 20.9505 36.8329 20.9505 36.6041V20.7681C20.9505 20.5399 21.0717 20.3278 21.269 20.2125C21.4662 20.0971 21.7105 20.0938 21.9097 20.2054L36.0916 28.1233C36.2953 28.2374 36.4216 28.4528 36.4216 28.6861C36.4216 28.9195 36.2953 29.1348 36.0909 29.2489L21.9091 37.1668C21.8118 37.2216 21.7035 37.2487 21.5952 37.2487ZM22.2398 21.8666V35.5056L34.4542 28.6861L22.2398 21.8666Z" fill="white"/>
</g>
<defs>
<clipPath id="clip0">
<rect width="58" height="58" fill="white"/>
</clipPath>
</defs>
</svg>
