<svg width="20" height="20" viewBox="0 0 20 20" fill="none" xmlns="http://www.w3.org/2000/svg">
<path d="M16.6956 20H3.30435C1.47826 20 0 18.5217 0 16.6957V3.30435C0 1.47826 1.47826 0 3.30435 0H16.6087C18.4348 0 19.913 1.47826 19.913 3.30435V16.6087C20 18.5217 18.5217 20 16.6956 20ZM3.30435 0.869565C1.91304 0.869565 0.869565 2 0.869565 3.30435V16.6087C0.869565 18 2 19.0435 3.30435 19.0435H16.6087C18 19.0435 19.0435 17.913 19.0435 16.6087V3.30435C19.0435 1.91304 17.913 0.869565 16.6087 0.869565H3.30435Z" fill="black"/>
<path d="M3.3913 12.1736C3.13043 12.1736 2.95651 11.9997 2.95651 11.7388V8.26069C2.95651 7.99983 3.13043 7.82593 3.3913 7.82593C3.65217 7.82593 3.82608 7.99983 3.82608 8.26069V11.7388C3.82608 11.9997 3.65217 12.1736 3.3913 12.1736Z" fill="black"/>
<path d="M5.39127 12.1736C5.1304 12.1736 4.95648 11.9997 4.95648 11.7388V8.26069C4.95648 7.99983 5.1304 7.82593 5.39127 7.82593C5.65214 7.82593 5.82605 7.99983 5.82605 8.26069V11.7388C5.82605 11.9997 5.65214 12.1736 5.39127 12.1736Z" fill="black"/>
<path d="M7.91309 12.1736C7.65222 12.1736 7.4783 11.9997 7.4783 11.7388V8.26069C7.4783 7.99983 7.65222 7.82593 7.91309 7.82593C8.17396 7.82593 8.34787 7.99983 8.34787 8.26069V11.7388C8.34787 11.9997 8.17396 12.1736 7.91309 12.1736Z" fill="black"/>
<path d="M9.73914 12.1736C9.47827 12.1736 9.30435 11.9997 9.30435 11.7388V8.26069C9.30435 7.99983 9.47827 7.82593 9.73914 7.82593C10 7.82593 10.1739 7.99983 10.1739 8.26069V11.7388C10.1739 11.9997 10 12.1736 9.73914 12.1736Z" fill="black"/>
<path d="M12.3478 12.1743C12.087 12.1743 11.9131 12.0004 11.9131 11.7395V8.26077C11.9131 7.99986 12.087 7.82593 12.3478 7.82593C12.6087 7.82593 12.7826 7.99986 12.7826 8.26077V11.7395C12.7826 12.0004 12.5217 12.1743 12.3478 12.1743Z" fill="black"/>
<path d="M14.0869 12.1736C13.826 12.1736 13.6521 11.9997 13.6521 11.7388V8.26069C13.6521 7.99983 13.826 7.82593 14.0869 7.82593C14.3478 7.82593 14.5217 7.99983 14.5217 8.26069V11.7388C14.5217 11.9997 14.3478 12.1736 14.0869 12.1736Z" fill="black"/>
<path d="M16.6087 12.1738C16.3478 12.1738 16.1739 11.9999 16.1739 11.7391V9.99996C16.1739 9.7391 16.3478 9.56519 16.6087 9.56519C16.8696 9.56519 17.0435 9.7391 17.0435 9.99996V11.7391C17.0435 11.9999 16.8696 12.1738 16.6087 12.1738Z" fill="black"/>
<path d="M6.60869 9.91284C6.52173 9.91284 6.34782 9.82589 6.26086 9.82589L4.95651 8.52158C4.7826 8.34767 4.7826 8.08681 4.95651 7.9129C5.13043 7.73899 5.3913 7.73899 5.56521 7.9129L6.52173 8.86939L7.47825 7.9129C7.65216 7.73899 7.91303 7.73899 8.08694 7.9129C8.26085 8.08681 8.26085 8.34767 8.08694 8.52158L6.7826 9.82589C6.86955 9.91284 6.7826 9.91284 6.60869 9.91284Z" fill="black"/>
<path d="M16.6086 12.1743H14.0869C13.826 12.1743 13.6521 12.0003 13.6521 11.7394C13.6521 11.4784 13.826 11.3044 14.0869 11.3044H16.6086C16.8695 11.3044 17.0434 11.4784 17.0434 11.7394C17.0434 12.0003 16.8695 12.1743 16.6086 12.1743Z" fill="black"/>
<path d="M16.6086 10.4348H14.0869C13.826 10.4348 13.6521 10.2609 13.6521 10C13.6521 9.73911 13.826 9.56519 14.0869 9.56519H16.6086C16.8695 9.56519 17.0434 9.73911 17.0434 10C17.0434 10.2609 16.8695 10.4348 16.6086 10.4348Z" fill="black"/>
<path d="M12.3478 8.69531H9.82605C9.56518 8.69531 9.39127 8.52144 9.39127 8.26062C9.39127 7.9998 9.56518 7.82593 9.82605 7.82593H12.3478C12.6086 7.82593 12.7826 7.9998 12.7826 8.26062C12.7826 8.52144 12.5217 8.69531 12.3478 8.69531Z" fill="black"/>
<path d="M12.3478 12.1743H9.82605C9.56518 12.1743 9.39127 12.0003 9.39127 11.7394C9.39127 11.4784 9.56518 11.3044 9.82605 11.3044H12.3478C12.6086 11.3044 12.7826 11.4784 12.7826 11.7394C12.7826 12.0003 12.5217 12.1743 12.3478 12.1743Z" fill="black"/>
</svg>
