<svg width="53" height="53" viewBox="0 0 53 53" fill="none" xmlns="http://www.w3.org/2000/svg">
<g clip-path="url(#clip0)">
<path d="M31.8239 17.881C28.4315 17.881 25.6724 15.1213 25.6724 11.7289C25.6724 8.33654 28.4321 5.57739 31.8239 5.57739C35.2157 5.57739 37.9766 8.33713 37.9766 11.7295C37.9766 15.1219 35.2163 17.881 31.8239 17.881ZM31.8239 7.93362C29.731 7.93362 28.0286 9.63659 28.0286 11.7295C28.0286 13.8224 29.7316 15.5254 31.8239 15.5254C33.9174 15.5254 35.6198 13.8224 35.6198 11.7295C35.6198 9.63659 33.9174 7.93362 31.8239 7.93362Z" fill="white"/>
<path d="M14.4844 19.0249C12.2672 19.0249 10.4641 17.2212 10.4641 15.0046C10.4641 12.7879 12.2678 10.9843 14.4844 10.9843C16.701 10.9843 18.5047 12.7879 18.5047 15.0046C18.5047 17.2212 16.7016 19.0249 14.4844 19.0249ZM14.4844 13.3399C13.5667 13.3399 12.8203 14.0868 12.8203 15.004C12.8203 15.9211 13.5672 16.6681 14.4844 16.6681C15.4016 16.6681 16.1485 15.9211 16.1485 15.004C16.1485 14.0868 15.4022 13.3399 14.4844 13.3399Z" fill="white"/>
<path d="M24.2015 33.1971H9.94867C9.29835 33.1971 8.77055 32.6693 8.77055 32.019V27.9774C8.77055 27.3271 9.29835 26.7993 9.94867 26.7993H24.2015C24.8518 26.7993 25.3796 27.3271 25.3796 27.9774V32.019C25.3796 32.6699 24.8518 33.1971 24.2015 33.1971ZM11.1268 30.8408H23.0234V29.1556H11.1268V30.8408Z" fill="white"/>
<path d="M31.8239 37.2392H9.94867C9.29835 37.2392 8.77055 36.7114 8.77055 36.061C8.77055 35.4107 9.29835 34.8829 9.94867 34.8829H31.8239C32.4742 34.8829 33.002 35.4107 33.002 36.061C33.002 36.7114 32.4748 37.2392 31.8239 37.2392Z" fill="white"/>
<path d="M52.1222 24.0413C51.7535 23.8328 51.2999 23.8381 50.9353 24.0567L45.0094 27.6187V22.0368C45.0094 21.3865 44.4816 20.8587 43.8312 20.8587H38.7648C41.5198 18.7587 43.3093 15.4535 43.3093 11.7295C43.3093 5.3965 38.1569 0.244019 31.8239 0.244019C26.2532 0.244019 21.6002 4.23135 20.5594 9.50105C19.0561 7.84345 16.8931 6.79434 14.4844 6.79434C9.95691 6.79434 6.27413 10.4771 6.27413 15.0046C6.27413 17.2955 7.21957 19.3678 8.73816 20.8587H4.79324C4.14292 20.8587 3.61512 21.3865 3.61512 22.0368V26.7993H0.883666C0.233346 26.7993 -0.294449 27.3271 -0.294449 27.9774V36.0611C-0.294449 36.7114 0.233346 37.2392 0.883666 37.2392H3.61512V42.0017C3.61512 42.652 4.14292 43.1798 4.79324 43.1798H21.2827L13.6886 50.1366C13.2091 50.576 13.1761 51.3212 13.6156 51.8007C13.8482 52.0545 14.1657 52.183 14.4844 52.183C14.7683 52.183 15.054 52.0805 15.2802 51.8737L24.3122 43.5992L33.3443 51.8737C33.5705 52.0811 33.855 52.183 34.1395 52.183C34.4588 52.183 34.7763 52.054 35.0089 51.8007C35.4484 51.3212 35.4154 50.576 34.9359 50.1366L27.3424 43.1798H43.8318C44.4822 43.1798 45.0099 42.652 45.0099 42.0017V36.4192L50.9359 39.9812C51.122 40.0932 51.3323 40.1497 51.5426 40.1497C51.7423 40.1497 51.9426 40.099 52.1222 39.9971C52.4922 39.7874 52.7207 39.3957 52.7207 38.971V25.0669C52.7207 24.6422 52.4922 24.2505 52.1222 24.0413ZM31.8239 2.60025C36.858 2.60025 40.9531 6.69596 40.9531 11.7295C40.9531 16.763 36.858 20.8587 31.8239 20.8587C26.7904 20.8587 22.6947 16.763 22.6947 11.7295C22.6947 6.69596 26.7904 2.60025 31.8239 2.60025ZM24.883 20.8587H20.2313C21.0724 20.0328 21.7304 19.0267 22.1563 17.9051C22.8855 19.0432 23.8104 20.0411 24.883 20.8587ZM8.63036 15.0046C8.63036 11.7766 11.2564 9.15056 14.4844 9.15056C17.7124 9.15056 20.3385 11.7766 20.3385 15.0046C20.3385 18.2326 17.7124 20.8587 14.4844 20.8587C11.2564 20.8587 8.63036 18.2326 8.63036 15.0046ZM2.06178 34.8829V29.1555H3.61512V34.8829H2.06178ZM42.6537 40.8236H5.97135V36.0611V27.9774V23.2149H42.6537V29.7022V34.3363V40.8236ZM50.3645 36.8881L45.0099 33.6701V30.3684L50.3645 27.1498V36.8881Z" fill="white"/>
<path d="M38.0585 34.8829H35.9314C35.2811 34.8829 34.7533 35.4107 34.7533 36.061C34.7533 36.7114 35.2811 37.2392 35.9314 37.2392H38.0585C38.7088 37.2392 39.2366 36.7114 39.2366 36.061C39.2366 35.4107 38.7094 34.8829 38.0585 34.8829Z" fill="white"/>
</g>
<defs>
<clipPath id="clip0">
<rect width="53" height="53" fill="white"/>
</clipPath>
</defs>
</svg>
