<svg width="56" height="56" viewBox="0 0 56 56" fill="none" xmlns="http://www.w3.org/2000/svg">
<g clip-path="url(#clip0)">
<path d="M21.8751 37.2459L14.2344 48.9124H16.8863L20.6837 43.1807L26.1843 47.4059L20.5122 55.59H23.5071L30.0267 46.2207L32.4313 46.191L37.1692 52.3974H40.1641L32.6236 42.4866L45.2215 24.3772H45.6052V22.7073L44.7964 22.4248V12.9653H45.9247V11.9842L35.0724 9.50374H34.6789V7.80952L34.7132 7.80861V0L10.1085 0.3439V7.80861V8.49641V10.7557V11.7874V21.07H9.66622V22.1983L10.8261 22.8418L21.8751 37.2459ZM18.938 30.1793L16.0469 25.733L17.3765 26.4686L20.6304 30.7317L18.938 30.1793ZM20.44 26.4695H20.718V25.77C23.9584 25.9171 26.8549 25.8918 29.3958 25.7663L25.0054 32.4692L20.44 26.4695ZM20.9617 32.7554L22.5675 33.2699L23.5964 34.6175L23.0684 35.4235L20.9617 32.7554ZM27.3956 45.6575L21.9013 41.3466L23.3464 39.1649L27.837 45.0193L27.3956 45.6575ZM26.8549 40.2183L24.5677 37.3209L25.0749 36.5545L27.9588 40.3329L26.8549 40.2183ZM31.0377 40.4024L26.4885 34.4207L30.3264 28.6304L36.7405 32.1705L31.0377 40.4024ZM42.1436 24.3772L37.9671 30.404L31.3464 27.0941L32.36 25.5642C36.9544 25.1598 40.0287 24.4557 41.491 24.0595L42.2655 24.3772H42.1436ZM34.678 10.9452L43.0769 12.9536V21.8273L35.623 19.2259H34.678V10.9452ZM11.828 8.44767L32.9612 7.85645V9.50194V10.5336V19.2259H32.4322V20.3091L32.2102 20.2324C27.4461 20.9021 22.6171 21.2207 19.0978 21.3715V14.4375H20.2269V13.4563L12.2216 10.7557H11.8289L11.828 8.44767ZM11.828 12.4093L17.3765 14.4203V21.4383C15.1677 21.5105 13.7921 21.5114 13.7912 21.5114L12.8579 21.0691H11.8271V12.4093H11.828Z" fill="white"/>
</g>
<defs>
<clipPath id="clip0">
<rect width="55.59" height="55.59" fill="white"/>
</clipPath>
</defs>
</svg>
