<svg width="17" height="19" viewBox="0 0 17 19" fill="none" xmlns="http://www.w3.org/2000/svg">
<path d="M2.68284 0H3.82285L4.60501 2.93074L5.33018 0H6.48126L5.16314 4.35811V7.3324H4.03026V4.35811L2.68284 0V0ZM7.9031 1.87862C7.01722 1.87862 6.42981 2.46445 6.42981 3.33133V5.98261C6.42981 6.93577 6.92776 7.43215 7.9031 7.43215C8.71218 7.43215 9.34868 6.89144 9.34868 5.98261V3.33133C9.34868 2.48504 8.71772 1.87862 7.9031 1.87862ZM8.32347 5.93749C8.32347 6.23198 8.17306 6.4489 7.90231 6.4489C7.62443 6.4489 7.46372 6.22169 7.46372 5.93749V3.42078C7.46372 3.1247 7.59989 2.90541 7.88251 2.90541C8.19127 2.90541 8.32347 3.11837 8.32347 3.42078V5.93749ZM12.0673 1.92375V6.02932C11.9446 6.1829 11.6714 6.43465 11.4759 6.43465C11.2613 6.43465 11.2083 6.2874 11.2083 6.07049V1.92375H10.2029V6.44415C10.2029 6.97852 10.366 7.40998 10.9051 7.40998C11.2091 7.40998 11.6319 7.25165 12.0673 6.73469V7.33161H13.0727V1.92375H12.0673ZM13.8113 12.8946C13.4566 12.8946 13.383 13.144 13.383 13.4987V14.0204H14.2293V13.4979C14.2301 13.1496 14.1565 12.8946 13.8113 12.8946ZM10.0881 12.9263C10.0216 12.9603 9.95589 13.0126 9.89018 13.0831V16.2933C9.96856 16.3772 10.0438 16.4373 10.1174 16.4745C10.2733 16.5537 10.5013 16.5593 10.6074 16.4215C10.6628 16.3487 10.6906 16.2307 10.6906 16.066V13.4068C10.6906 13.2327 10.6565 13.1013 10.5884 13.011C10.4721 12.8582 10.2559 12.8416 10.0881 12.9263ZM13.9095 8.8136C11.848 8.67348 5.14889 8.67348 3.09055 8.8136C0.862802 8.9656 0.599969 10.3114 0.583344 13.8541C0.599969 17.3905 0.860427 18.7427 3.09055 18.8947C5.14889 19.0348 11.848 19.0348 13.9095 18.8947C16.1372 18.7427 16.4001 17.396 16.4167 13.8541C16.4001 10.3178 16.1396 8.9656 13.9095 8.8136ZM4.15297 17.2733H3.07393V11.3042H1.95768V10.2908H5.26843V11.3042H4.15218V17.2733H4.15297ZM7.98939 17.2733H7.03147V16.7049C6.85493 16.9147 6.67126 17.0746 6.48047 17.1839C5.96431 17.48 5.25576 17.4728 5.25576 16.4278V12.1228H6.21289V16.0716C6.21289 16.279 6.26276 16.4183 6.46781 16.4183C6.65464 16.4183 6.91431 16.1785 7.03068 16.0328V12.1228H7.9886V17.2733H7.98939ZM11.6762 16.2062C11.6762 16.8435 11.4379 17.339 10.8006 17.339C10.4499 17.339 10.1578 17.2108 9.89097 16.8775V17.2733H8.92435V10.2908H9.89097V12.5392C10.1071 12.2756 10.4008 12.0578 10.7428 12.0578C11.4442 12.0578 11.677 12.6508 11.677 13.3491V16.2062H11.6762ZM15.2157 14.8192H13.3838V15.7913C13.3838 16.1777 13.4171 16.5118 13.8018 16.5118C14.2064 16.5118 14.2301 16.2394 14.2301 15.7913V15.4335H15.2157V15.8206C15.2157 16.8126 14.7898 17.4142 13.7804 17.4142C12.8661 17.4142 12.3982 16.7477 12.3982 15.8206V13.5082C12.3982 12.6144 12.9888 11.9929 13.8525 11.9929C14.7716 11.9929 15.2149 12.5772 15.2149 13.5082V14.8192H15.2157Z" fill="black"/>
</svg>
